# xmcd
#
# Track frame offsets:
#	150
#	13856
#	29188
#	39897
#	53823
#	67817
#	79167
#	92361
#	106658
#	119884
#	133330
#	143045
#	157589
#	171122
#	183591
#	195777
#	209645
#	221025
#
# Disc length: 3116 seconds
#
# Revision: 1
# Processed by: cddbd v1.4PL0 Copyright (c) Steve Scherf et al.
# Submitted via: audiograbber 1.81.03
#
DISCID=f90c2a12
DTITLE=Various Artist - County Jail Blues - CD 1
DYEAR=2001
DGENRE=Blues
TTITLE0=T Bone Walker - Stormy Monday
TTITLE1=King Cole Trio - Don't Blame Me
TTITLE2=Joe Turner - Jumpin' Tonight
TTITLE3=John Lee Hooker - Sally Mae
TTITLE4=Charles Brown - Gee!
TTITLE5=Joe Turner - Morning Glory
TTITLE6=King Cole Trio - I'm Through With Love
TTITLE7=T Bone Walker - I Can't Stand Being  Away From You
TTITLE8=Joe Turner - Sally Zu Zazz
TTITLE9=Amos Milburn - Bown The Road A' Piece
TTITLE10=Jay McShann's Kansas City Stompers - Bad Tale Boogie
TTITLE11=Lowell Fulson - Night And Day
TTITLE12=John Lee Hooker - I Had A Dream
TTITLE13=Smokey Hogg - In This World Alone
TTITLE14=Joe Turner - It's A Lowdown Dirty Shame (Playboy Blues)
TTITLE15=John Lee Hooker - Nobody To Talk To Me
TTITLE16=Charles Brown - Rising Sun
TTITLE17=Jimmy Reed - Shame
EXTD=
EXTT0=
EXTT1=
EXTT2=
EXTT3=
EXTT4=
EXTT5=
EXTT6=
EXTT7=
EXTT8=
EXTT9=
EXTT10=
EXTT11=
EXTT12=
EXTT13=
EXTT14=
EXTT15=
EXTT16=
EXTT17=
PLAYORDER=
